<svg xmlns="http://www.w3.org/2000/svg" xmlns:xlink="http://www.w3.org/1999/xlink" version="1.1" width="256" height="256" viewBox="0 0 256 256" xml:space="preserve">

<defs>
</defs>
<g style="stroke: none; stroke-width: 0; stroke-dasharray: none; stroke-linecap: butt; stroke-linejoin: miter; stroke-miterlimit: 10; fill: none; fill-rule: nonzero; opacity: 1;" transform="translate(1.4065934065934016 1.4065934065934016) scale(2.81 2.81)" >
	<circle cx="45" cy="45" r="43" style="stroke: none; stroke-width: 1; stroke-dasharray: none; stroke-linecap: butt; stroke-linejoin: miter; stroke-miterlimit: 10; fill: rgb(255,202,40); fill-rule: nonzero; opacity: 1;" transform="  matrix(1 0 0 1 0 0) "/>
	<path d="M 79.645 12.407 h -69.29 C 5.741 12.407 2 16.147 2 20.761 v 15.884 C 2 41.259 5.741 45 10.355 45 h 23.764 c 1.884 -4.133 6.042 -7.012 10.881 -7.012 S 53.997 40.867 55.881 45 h 23.764 C 84.259 45 88 41.259 88 36.645 V 20.761 C 88 16.147 84.259 12.407 79.645 12.407 z" style="stroke: none; stroke-width: 1; stroke-dasharray: none; stroke-linecap: butt; stroke-linejoin: miter; stroke-miterlimit: 10; fill: rgb(38,193,219); fill-rule: nonzero; opacity: 1;" transform=" matrix(1 0 0 1 0 0) " stroke-linecap="round" />
	<path d="M 18.266 13.914 l -2.609 -3.031 C 23.809 3.865 34.23 0 45 0 c 10.77 0 21.19 3.865 29.343 10.882 l -2.609 3.031 C 64.307 7.521 54.813 4 45 4 C 35.187 4 25.693 7.521 18.266 13.914 z" style="stroke: none; stroke-width: 1; stroke-dasharray: none; stroke-linecap: butt; stroke-linejoin: miter; stroke-miterlimit: 10; fill: rgb(0,0,0); fill-rule: nonzero; opacity: 1;" transform=" matrix(1 0 0 1 0 0) " stroke-linecap="round" />
	<path d="M 45 90 C 20.187 90 0 69.813 0 45 c 0 -2.037 0.138 -4.086 0.409 -6.092 l 3.964 0.537 C 4.125 41.273 4 43.143 4 45 c 0 22.607 18.393 41 41 41 s 41 -18.393 41 -41 c 0 -1.86 -0.125 -3.729 -0.372 -5.555 l 3.963 -0.537 C 89.862 40.912 90 42.961 90 45 C 90 69.813 69.813 90 45 90 z" style="stroke: none; stroke-width: 1; stroke-dasharray: none; stroke-linecap: butt; stroke-linejoin: miter; stroke-miterlimit: 10; fill: rgb(0,0,0); fill-rule: nonzero; opacity: 1;" transform=" matrix(1 0 0 1 0 0) " stroke-linecap="round" />
	<path d="M 45 69.345 c -7.954 0 -15.337 -3.969 -19.751 -10.617 c -0.611 -0.92 -0.36 -2.162 0.56 -2.772 c 0.92 -0.613 2.162 -0.36 2.772 0.56 c 3.671 5.529 9.809 8.83 16.419 8.83 c 6.61 0 12.748 -3.301 16.419 -8.83 c 0.61 -0.921 1.85 -1.173 2.772 -0.56 c 0.92 0.61 1.171 1.853 0.56 2.772 C 60.337 65.376 52.953 69.345 45 69.345 z" style="stroke: none; stroke-width: 1; stroke-dasharray: none; stroke-linecap: butt; stroke-linejoin: miter; stroke-miterlimit: 10; fill: rgb(0,0,0); fill-rule: nonzero; opacity: 1;" transform=" matrix(1 0 0 1 0 0) " stroke-linecap="round" />
	<path d="M 79.646 47 H 55.881 c -0.783 0 -1.495 -0.458 -1.82 -1.17 c -1.617 -3.549 -5.174 -5.842 -9.061 -5.842 c -3.887 0 -7.444 2.293 -9.061 5.842 c -0.325 0.712 -1.036 1.17 -1.82 1.17 H 10.355 C 4.645 47 0 42.355 0 36.645 V 20.761 c 0 -5.709 4.645 -10.354 10.355 -10.354 h 69.291 c 5.71 0 10.354 4.645 10.354 10.354 v 15.884 C 90 42.355 85.355 47 79.646 47 z M 57.099 43 h 22.547 C 83.149 43 86 40.149 86 36.645 V 20.761 c 0 -3.504 -2.851 -6.354 -6.354 -6.354 H 10.355 C 6.851 14.407 4 17.257 4 20.761 v 15.884 C 4 40.149 6.851 43 10.355 43 h 22.546 c 2.473 -4.299 7.09 -7.012 12.099 -7.012 C 50.009 35.988 54.626 38.701 57.099 43 z" style="stroke: none; stroke-width: 1; stroke-dasharray: none; stroke-linecap: butt; stroke-linejoin: miter; stroke-miterlimit: 10; fill: rgb(0,0,0); fill-rule: nonzero; opacity: 1;" transform=" matrix(1 0 0 1 0 0) " stroke-linecap="round" />
</g>
</svg>