<svg xmlns="http://www.w3.org/2000/svg" xmlns:xlink="http://www.w3.org/1999/xlink" version="1.1" width="256" height="256" viewBox="0 0 256 256" xml:space="preserve">

<defs>
</defs>
<g style="stroke: none; stroke-width: 0; stroke-dasharray: none; stroke-linecap: butt; stroke-linejoin: miter; stroke-miterlimit: 10; fill: none; fill-rule: nonzero; opacity: 1;" transform="translate(1.4065934065934016 1.4065934065934016) scale(2.81 2.81)" >
	<circle cx="45" cy="45" r="43" style="stroke: none; stroke-width: 1; stroke-dasharray: none; stroke-linecap: butt; stroke-linejoin: miter; stroke-miterlimit: 10; fill: rgb(255,202,40); fill-rule: nonzero; opacity: 1;" transform="  matrix(1 0 0 1 0 0) "/>
	<path d="M 61.369 12.623 c -1.758 -2.659 -1.466 -6.275 0.876 -8.617 v 0 c 2.675 -2.675 7.013 -2.675 9.688 0 l 1.483 1.483 c 0.388 0.388 1.018 0.388 1.407 0 l 1.483 -1.483 c 2.675 -2.675 7.013 -2.675 9.688 0 v 0 c 2.341 2.341 2.633 5.954 0.878 8.613 l -2.294 2.491 l -0.77 0.77 l -9.028 9.028 c -0.364 0.364 -0.955 0.364 -1.32 0 l -9.028 -9.028 l 0 0 l -0.771 -0.771 L 61.369 12.623 z" style="stroke: none; stroke-width: 1; stroke-dasharray: none; stroke-linecap: butt; stroke-linejoin: miter; stroke-miterlimit: 10; fill: rgb(239,41,41); fill-rule: nonzero; opacity: 1;" transform=" matrix(1 0 0 1 0 0) " stroke-linecap="round" />
	<path d="M 3.131 75.441 c -1.758 -2.659 -1.466 -6.275 0.876 -8.617 v 0 c 2.675 -2.675 7.013 -2.675 9.688 0 l 1.483 1.483 c 0.388 0.388 1.018 0.388 1.407 0 l 1.483 -1.483 c 2.675 -2.675 7.013 -2.675 9.688 0 v 0 c 2.341 2.341 2.633 5.954 0.878 8.613 l -2.294 2.491 l -0.77 0.77 l -9.028 9.028 c -0.364 0.364 -0.955 0.364 -1.32 0 l -9.028 -9.028 l 0 0 l -0.771 -0.771 L 3.131 75.441 z" style="stroke: none; stroke-width: 1; stroke-dasharray: none; stroke-linecap: butt; stroke-linejoin: miter; stroke-miterlimit: 10; fill: rgb(239,41,41); fill-rule: nonzero; opacity: 1;" transform=" matrix(1 0 0 1 0 0) " stroke-linecap="round" />
	<path d="M 45 90 c -8.307 0 -16.423 -2.282 -23.472 -6.6 l 2.089 -3.41 C 30.037 83.922 37.431 86 45 86 c 22.607 0 41 -18.393 41 -41 c 0 -8.688 -2.682 -16.988 -7.756 -24.002 l 3.24 -2.345 C 87.056 26.354 90 35.465 90 45 C 90 69.813 69.813 90 45 90 z" style="stroke: none; stroke-width: 1; stroke-dasharray: none; stroke-linecap: butt; stroke-linejoin: miter; stroke-miterlimit: 10; fill: rgb(0,0,0); fill-rule: nonzero; opacity: 1;" transform=" matrix(1 0 0 1 0 0) " stroke-linecap="round" />
	<path d="M 5.201 66.019 C 1.798 59.589 0 52.321 0 45 C 0 20.187 20.187 0 45 0 c 5.901 0 11.641 1.126 17.059 3.346 l -1.518 3.701 C 55.607 5.025 50.379 4 45 4 C 22.393 4 4 22.393 4 45 c 0 6.671 1.638 13.292 4.736 19.147 L 5.201 66.019 z" style="stroke: none; stroke-width: 1; stroke-dasharray: none; stroke-linecap: butt; stroke-linejoin: miter; stroke-miterlimit: 10; fill: rgb(0,0,0); fill-rule: nonzero; opacity: 1;" transform=" matrix(1 0 0 1 0 0) " stroke-linecap="round" />
	<circle cx="31" cy="35.55" r="5" style="stroke: none; stroke-width: 1; stroke-dasharray: none; stroke-linecap: butt; stroke-linejoin: miter; stroke-miterlimit: 10; fill: rgb(0,0,0); fill-rule: nonzero; opacity: 1;" transform="  matrix(1 0 0 1 0 0) "/>
	<circle cx="59" cy="35.55" r="5" style="stroke: none; stroke-width: 1; stroke-dasharray: none; stroke-linecap: butt; stroke-linejoin: miter; stroke-miterlimit: 10; fill: rgb(0,0,0); fill-rule: nonzero; opacity: 1;" transform="  matrix(1 0 0 1 0 0) "/>
	<path d="M 45 65.345 c -7.954 0 -15.337 -3.969 -19.751 -10.617 c -0.611 -0.92 -0.36 -2.162 0.56 -2.772 c 0.92 -0.612 2.162 -0.36 2.772 0.56 c 3.671 5.529 9.809 8.83 16.419 8.83 c 6.61 0 12.748 -3.301 16.419 -8.83 c 0.61 -0.921 1.85 -1.173 2.772 -0.56 c 0.92 0.61 1.171 1.853 0.56 2.772 C 60.337 61.376 52.953 65.345 45 65.345 z" style="stroke: none; stroke-width: 1; stroke-dasharray: none; stroke-linecap: butt; stroke-linejoin: miter; stroke-miterlimit: 10; fill: rgb(0,0,0); fill-rule: nonzero; opacity: 1;" transform=" matrix(1 0 0 1 0 0) " stroke-linecap="round" />
	<path d="M 74.119 27.181 c -0.75 0 -1.501 -0.285 -2.072 -0.855 l -9.802 -9.803 L 59.7 13.726 c -2.307 -3.49 -1.831 -8.172 1.131 -11.134 C 62.502 0.92 64.725 0 67.089 0 s 4.587 0.92 6.258 2.592 l 0.772 0.772 l 0.772 -0.772 C 76.563 0.92 78.785 0 81.149 0 s 4.587 0.92 6.258 2.592 c 2.96 2.96 3.437 7.641 1.133 11.129 l -0.197 0.253 l -3.12 3.32 l -9.029 9.029 C 75.622 26.895 74.871 27.181 74.119 27.181 z M 62.958 11.397 l 2.888 3.071 l 8.273 8.273 l 9.043 -9.043 l 2.119 -2.303 c 1.171 -1.896 0.886 -4.386 -0.702 -5.974 C 83.663 4.504 82.445 4 81.149 4 s -2.514 0.504 -3.43 1.42 l -1.483 1.483 c -0.563 0.564 -1.314 0.876 -2.115 0.877 c 0 0 -0.001 0 -0.002 0 c -0.8 0 -1.552 -0.312 -2.117 -0.877 l -1.483 -1.482 C 69.603 4.504 68.385 4 67.089 4 s -2.514 0.504 -3.43 1.42 C 62.07 7.009 61.786 9.5 62.958 11.397 z" style="stroke: none; stroke-width: 1; stroke-dasharray: none; stroke-linecap: butt; stroke-linejoin: miter; stroke-miterlimit: 10; fill: rgb(0,0,0); fill-rule: nonzero; opacity: 1;" transform=" matrix(1 0 0 1 0 0) " stroke-linecap="round" />
	<path d="M 15.881 90 c -0.783 0 -1.52 -0.306 -2.074 -0.859 l -9.8 -9.8 l -2.545 -2.797 c -2.307 -3.49 -1.832 -8.173 1.13 -11.134 c 1.671 -1.672 3.894 -2.593 6.258 -2.593 c 2.364 0 4.587 0.921 6.259 2.593 l 0.772 0.771 l 0.772 -0.771 c 1.671 -1.672 3.894 -2.593 6.258 -2.593 c 2.364 0 4.586 0.921 6.258 2.593 c 2.96 2.959 3.437 7.641 1.132 11.129 l -0.198 0.253 l -3.122 3.321 l -9.028 9.027 C 17.401 89.694 16.664 90 15.881 90 z M 4.72 74.215 l 2.887 3.069 l 8.274 8.273 l 9.044 -9.044 l 2.118 -2.302 c 1.17 -1.896 0.886 -4.386 -0.702 -5.974 c -0.917 -0.916 -2.134 -1.421 -3.43 -1.421 c -1.296 0 -2.514 0.505 -3.43 1.421 l -1.483 1.482 c -1.129 1.13 -3.104 1.131 -4.235 0 l -1.483 -1.482 c -0.917 -0.916 -2.134 -1.421 -3.43 -1.421 c -1.295 0 -2.513 0.505 -3.429 1.421 C 3.832 69.827 3.548 72.317 4.72 74.215 z" style="stroke: none; stroke-width: 1; stroke-dasharray: none; stroke-linecap: butt; stroke-linejoin: miter; stroke-miterlimit: 10; fill: rgb(0,0,0); fill-rule: nonzero; opacity: 1;" transform=" matrix(1 0 0 1 0 0) " stroke-linecap="round" />
</g>
</svg>