<svg xmlns="http://www.w3.org/2000/svg" xmlns:xlink="http://www.w3.org/1999/xlink" version="1.1" width="256" height="256" viewBox="0 0 256 256" xml:space="preserve">

<defs>
</defs>
<g style="stroke: none; stroke-width: 0; stroke-dasharray: none; stroke-linecap: butt; stroke-linejoin: miter; stroke-miterlimit: 10; fill: none; fill-rule: nonzero; opacity: 1;" transform="translate(1.4065934065934016 1.4065934065934016) scale(2.81 2.81)" >
	<ellipse cx="25.568" cy="51.944" rx="24.068" ry="31.644" style="stroke: none; stroke-width: 1; stroke-dasharray: none; stroke-linecap: butt; stroke-linejoin: miter; stroke-miterlimit: 10; fill: rgb(254,254,254); fill-rule: nonzero; opacity: 1;" transform=" matrix(1 0 0 1 0 0) "/>
	<ellipse cx="69.072" cy="51.94" rx="19.432" ry="25.55" style="stroke: none; stroke-width: 1; stroke-dasharray: none; stroke-linecap: butt; stroke-linejoin: miter; stroke-miterlimit: 10; fill: rgb(254,254,254); fill-rule: nonzero; opacity: 1;" transform=" matrix(1 0 0 1 0 0) "/>
	<path d="M 25.567 85.084 C 11.469 85.084 0 70.216 0 51.939 c 0 -18.276 11.469 -33.145 25.567 -33.145 s 25.567 14.869 25.567 33.145 C 51.135 70.216 39.666 85.084 25.567 85.084 z M 25.567 21.795 C 13.124 21.795 3 35.318 3 51.939 c 0 16.622 10.124 30.145 22.567 30.145 s 22.567 -13.522 22.567 -30.145 C 48.135 35.318 38.011 21.795 25.567 21.795 z" style="stroke: none; stroke-width: 1; stroke-dasharray: none; stroke-linecap: butt; stroke-linejoin: miter; stroke-miterlimit: 10; fill: rgb(0,0,0); fill-rule: nonzero; opacity: 1;" transform=" matrix(1 0 0 1 0 0) " stroke-linecap="round" />
	<path d="M 69.067 78.989 c -11.542 0 -20.933 -12.135 -20.933 -27.05 c 0 -14.916 9.391 -27.05 20.933 -27.05 S 90 37.024 90 51.939 C 90 66.854 80.609 78.989 69.067 78.989 z M 69.067 27.889 c -9.888 0 -17.933 10.789 -17.933 24.05 c 0 13.261 8.045 24.05 17.933 24.05 S 87 65.2 87 51.939 C 87 38.678 78.955 27.889 69.067 27.889 z" style="stroke: none; stroke-width: 1; stroke-dasharray: none; stroke-linecap: butt; stroke-linejoin: miter; stroke-miterlimit: 10; fill: rgb(0,0,0); fill-rule: nonzero; opacity: 1;" transform=" matrix(1 0 0 1 0 0) " stroke-linecap="round" />
	<path d="M 35.829 12.958 c -1.739 -1.548 -4.052 -2.771 -6.569 -3.498 c -2.514 -0.748 -5.231 -1.078 -7.914 -0.895 c -2.68 0.134 -5.293 1.039 -7.809 2.338 c -2.48 1.304 -4.899 2.908 -6.667 5.197 c 1.367 -2.565 3.559 -4.643 5.897 -6.421 c 1.183 -0.888 2.434 -1.695 3.784 -2.387 c 1.349 -0.705 2.827 -1.24 4.316 -1.613 c 2.991 -0.75 6.112 -0.942 9.24 -0.601 c 3.125 0.334 6.295 1.246 9.251 3.027 l 0.031 0.019 c 1.426 0.859 1.885 2.712 1.026 4.138 c -0.859 1.426 -2.712 1.885 -4.138 1.026 C 36.12 13.194 35.962 13.075 35.829 12.958 z" style="stroke: none; stroke-width: 1; stroke-dasharray: none; stroke-linecap: butt; stroke-linejoin: miter; stroke-miterlimit: 10; fill: rgb(0,0,0); fill-rule: nonzero; opacity: 1;" transform=" matrix(1 0 0 1 0 0) " stroke-linecap="round" />
	<path d="M 52.101 15.938 c 2.956 -1.781 6.126 -2.693 9.251 -3.027 c 3.128 -0.341 6.248 -0.149 9.24 0.601 c 1.488 0.373 2.966 0.908 4.316 1.613 c 1.349 0.692 2.601 1.499 3.784 2.387 c 2.338 1.778 4.53 3.856 5.897 6.421 c -1.768 -2.288 -4.186 -3.893 -6.667 -5.197 c -2.516 -1.299 -5.129 -2.204 -7.809 -2.338 c -2.683 -0.183 -5.399 0.147 -7.914 0.895 c -2.517 0.727 -4.829 1.95 -6.569 3.498 c -1.244 1.107 -3.149 0.996 -4.256 -0.248 s -0.996 -3.149 0.248 -4.256 c 0.137 -0.122 0.282 -0.229 0.434 -0.322 L 52.101 15.938 z" style="stroke: none; stroke-width: 1; stroke-dasharray: none; stroke-linecap: butt; stroke-linejoin: miter; stroke-miterlimit: 10; fill: rgb(0,0,0); fill-rule: nonzero; opacity: 1;" transform=" matrix(1 0 0 1 0 0) " stroke-linecap="round" />
	<path d="M 9.57 21.994 c -0.028 0.01 -0.058 0.013 -0.088 0.01 c -3.396 -0.424 -5.208 -2.123 -5.772 -3.572 c -0.374 -0.961 -0.265 -1.927 0.293 -2.584 c 0.64 -0.754 1.749 -1.02 3.131 -0.753 c 0.908 -1.075 1.938 -1.565 2.91 -1.38 c 0.846 0.161 1.538 0.844 1.85 1.827 c 0.471 1.482 0.128 3.943 -2.249 6.405 C 9.623 21.968 9.598 21.984 9.57 21.994 z" style="stroke: none; stroke-width: 1; stroke-dasharray: none; stroke-linecap: butt; stroke-linejoin: miter; stroke-miterlimit: 10; fill: rgb(204,68,68); fill-rule: nonzero; opacity: 1;" transform=" matrix(2.81 0 0 2.81 1.4065934065934016 1.4065934065934016) " stroke-linecap="round" />
	<path d="M 22.593 21.492 c -0.022 -0.011 -0.041 -0.028 -0.056 -0.048 c -1.679 -2.311 -1.677 -4.384 -1.116 -5.555 c 0.372 -0.776 1.023 -1.261 1.741 -1.295 c 0.825 -0.04 1.619 0.484 2.245 1.478 c 1.173 -0.06 2.059 0.288 2.501 0.985 c 0.385 0.607 0.363 1.418 -0.057 2.169 c -0.634 1.132 -2.329 2.327 -5.185 2.284 C 22.639 21.509 22.615 21.503 22.593 21.492 z" style="stroke: none; stroke-width: 1; stroke-dasharray: none; stroke-linecap: butt; stroke-linejoin: miter; stroke-miterlimit: 10; fill: rgb(204,68,68); fill-rule: nonzero; opacity: 1;" transform=" matrix(2.81 0 0 2.81 1.4065934065934016 1.4065934065934016) " stroke-linecap="round" />
	<ellipse cx="28.726000000000003" cy="47.622" rx="3.946" ry="5.212" style="stroke: none; stroke-width: 1; stroke-dasharray: none; stroke-linecap: butt; stroke-linejoin: miter; stroke-miterlimit: 10; fill: rgb(234,117,117); fill-rule: nonzero; opacity: 1;" transform=" matrix(1 0 0 1 0 0) "/>
	<ellipse cx="65.89699999999999" cy="49.146" rx="2.987" ry="3.946" style="stroke: none; stroke-width: 1; stroke-dasharray: none; stroke-linecap: butt; stroke-linejoin: miter; stroke-miterlimit: 10; fill: rgb(234,117,117); fill-rule: nonzero; opacity: 1;" transform=" matrix(1 0 0 1 0 0) "/>
</g>
</svg>