<svg xmlns="http://www.w3.org/2000/svg" xmlns:xlink="http://www.w3.org/1999/xlink" version="1.1" width="256" height="256" viewBox="0 0 256 256" xml:space="preserve">

<defs>
</defs>
<g style="stroke: none; stroke-width: 0; stroke-dasharray: none; stroke-linecap: butt; stroke-linejoin: miter; stroke-miterlimit: 10; fill: none; fill-rule: nonzero; opacity: 1;" transform="translate(1.4065934065934016 1.4065934065934016) scale(2.81 2.81)" >
	<circle cx="45" cy="45" r="43" style="stroke: none; stroke-width: 1; stroke-dasharray: none; stroke-linecap: butt; stroke-linejoin: miter; stroke-miterlimit: 10; fill: rgb(255,202,40); fill-rule: nonzero; opacity: 1;" transform="  matrix(1 0 0 1 0 0) "/>
	<path d="M 56.28 49.229 c 0.547 -2.682 2.919 -4.7 5.763 -4.7 l 0 0 c 3.248 0 5.881 2.633 5.881 5.881 l 0 1.8 c 0 0.472 0.382 0.854 0.854 0.854 h 1.801 c 3.248 0 5.881 2.633 5.881 5.881 l 0 0 c 0 2.842 -2.016 5.213 -4.696 5.762 l -2.905 0.119 h -0.935 H 56.962 c -0.442 0 -0.801 -0.359 -0.801 -0.801 V 53.065 l 0 0 l 0 -0.937 L 56.28 49.229 z" style="stroke: none; stroke-width: 1; stroke-dasharray: none; stroke-linecap: butt; stroke-linejoin: miter; stroke-miterlimit: 10; fill: rgb(239,41,41); fill-rule: nonzero; opacity: 1;" transform=" matrix(1 0 0 1 0 0) " stroke-linecap="round" />
	<path d="M 45 90 C 20.187 90 0 69.813 0 45 C 0 20.187 20.187 0 45 0 c 24.813 0 45 20.187 45 45 C 90 69.813 69.813 90 45 90 z M 45 4 C 22.393 4 4 22.393 4 45 s 18.393 41 41 41 s 41 -18.393 41 -41 S 67.607 4 45 4 z" style="stroke: none; stroke-width: 1; stroke-dasharray: none; stroke-linecap: butt; stroke-linejoin: miter; stroke-miterlimit: 10; fill: rgb(0,0,0); fill-rule: nonzero; opacity: 1;" transform=" matrix(1 0 0 1 0 0) " stroke-linecap="round" />
	<path d="M 45.14 79.144 c -0.942 0 -1.781 -0.668 -1.962 -1.628 c -0.206 -1.085 0.507 -2.132 1.592 -2.337 c 1.062 -0.201 1.981 -0.757 2.59 -1.565 c 0.565 -0.751 0.787 -1.633 0.626 -2.484 c -0.347 -1.831 -2.353 -2.993 -4.475 -2.593 c -1.085 0.209 -2.132 -0.507 -2.337 -1.593 c -0.024 -0.126 -0.036 -0.251 -0.036 -0.375 c 0 -0.941 0.669 -1.78 1.628 -1.962 c 1.062 -0.201 1.982 -0.757 2.59 -1.565 c 0.565 -0.75 0.787 -1.633 0.626 -2.483 c -0.347 -1.831 -2.354 -2.993 -4.476 -2.593 c -1.085 0.21 -2.132 -0.507 -2.337 -1.593 c -0.206 -1.085 0.507 -2.131 1.592 -2.337 c 4.285 -0.812 8.392 1.777 9.15 5.776 c 0.374 1.973 -0.109 3.974 -1.36 5.636 c -0.03 0.04 -0.061 0.08 -0.091 0.119 c 1.761 1.037 3.061 2.736 3.455 4.816 c 0.374 1.973 -0.108 3.974 -1.359 5.636 c -1.209 1.605 -2.999 2.703 -5.041 3.09 C 45.389 79.133 45.263 79.144 45.14 79.144 z" style="stroke: none; stroke-width: 1; stroke-dasharray: none; stroke-linecap: butt; stroke-linejoin: miter; stroke-miterlimit: 10; fill: rgb(0,0,0); fill-rule: nonzero; opacity: 1;" transform=" matrix(1 0 0 1 0 0) " stroke-linecap="round" />
	<path d="M 38.432 37.297 c -0.663 0 -1.311 -0.329 -1.692 -0.931 c -1.367 -2.159 -3.7 -3.448 -6.24 -3.448 s -4.874 1.289 -6.24 3.448 c -0.591 0.934 -1.826 1.211 -2.76 0.62 c -0.934 -0.591 -1.211 -1.827 -0.62 -2.76 c 2.105 -3.324 5.701 -5.308 9.62 -5.308 s 7.515 1.984 9.62 5.308 c 0.591 0.933 0.313 2.168 -0.62 2.76 C 39.168 37.196 38.798 37.297 38.432 37.297 z" style="stroke: none; stroke-width: 1; stroke-dasharray: none; stroke-linecap: butt; stroke-linejoin: miter; stroke-miterlimit: 10; fill: rgb(0,0,0); fill-rule: nonzero; opacity: 1;" transform=" matrix(1 0 0 1 0 0) " stroke-linecap="round" />
	<path d="M 67.432 37.297 c -0.663 0 -1.311 -0.329 -1.691 -0.931 c -1.367 -2.159 -3.7 -3.448 -6.24 -3.448 s -4.873 1.289 -6.24 3.448 c -0.592 0.934 -1.826 1.211 -2.76 0.62 c -0.933 -0.591 -1.21 -1.827 -0.619 -2.76 c 2.104 -3.324 5.7 -5.308 9.619 -5.308 s 7.515 1.984 9.619 5.308 c 0.591 0.933 0.313 2.168 -0.619 2.76 C 68.168 37.196 67.798 37.297 67.432 37.297 z" style="stroke: none; stroke-width: 1; stroke-dasharray: none; stroke-linecap: butt; stroke-linejoin: miter; stroke-miterlimit: 10; fill: rgb(0,0,0); fill-rule: nonzero; opacity: 1;" transform=" matrix(1 0 0 1 0 0) " stroke-linecap="round" />
	<path d="M 67.924 66.828 H 56.962 c -1.544 0 -2.801 -1.257 -2.801 -2.802 V 52.129 l 0.159 -3.3 c 0.745 -3.65 3.992 -6.3 7.722 -6.3 c 4.346 0 7.882 3.535 7.882 7.881 v 0.655 h 0.654 c 4.346 0 7.882 3.535 7.882 7.881 c 0 3.729 -2.647 6.976 -6.296 7.721 l -0.317 0.039 L 67.924 66.828 z M 58.161 62.828 h 10.697 l 2.645 -0.111 c 1.722 -0.419 2.957 -1.982 2.957 -3.771 c 0 -2.14 -1.741 -3.881 -3.882 -3.881 h -1.801 c -1.573 0 -2.854 -1.28 -2.854 -2.854 V 50.41 c 0 -2.14 -1.741 -3.881 -3.882 -3.881 c -1.789 0 -3.352 1.235 -3.771 2.958 l -0.112 2.724 L 58.161 62.828 z" style="stroke: none; stroke-width: 1; stroke-dasharray: none; stroke-linecap: butt; stroke-linejoin: miter; stroke-miterlimit: 10; fill: rgb(0,0,0); fill-rule: nonzero; opacity: 1;" transform=" matrix(1 0 0 1 0 0) " stroke-linecap="round" />
</g>
</svg>