<svg xmlns="http://www.w3.org/2000/svg" xmlns:xlink="http://www.w3.org/1999/xlink" version="1.1" width="256" height="256" viewBox="0 0 256 256" xml:space="preserve">

<defs>
</defs>
<g style="stroke: none; stroke-width: 0; stroke-dasharray: none; stroke-linecap: butt; stroke-linejoin: miter; stroke-miterlimit: 10; fill: none; fill-rule: nonzero; opacity: 1;" transform="translate(1.4065934065934016 1.4065934065934016) scale(2.81 2.81)" >
	<circle cx="45" cy="45" r="43" style="stroke: none; stroke-width: 1; stroke-dasharray: none; stroke-linecap: butt; stroke-linejoin: miter; stroke-miterlimit: 10; fill: rgb(255,202,40); fill-rule: nonzero; opacity: 1;" transform="  matrix(1 0 0 1 0 0) "/>
	<path d="M 45 90 C 20.187 90 0 69.813 0 45 C 0 20.187 20.187 0 45 0 c 24.813 0 45 20.187 45 45 C 90 69.813 69.813 90 45 90 z M 45 4 C 22.393 4 4 22.393 4 45 s 18.393 41 41 41 s 41 -18.393 41 -41 S 67.607 4 45 4 z" style="stroke: none; stroke-width: 1; stroke-dasharray: none; stroke-linecap: butt; stroke-linejoin: miter; stroke-miterlimit: 10; fill: rgb(0,0,0); fill-rule: nonzero; opacity: 1;" transform=" matrix(1 0 0 1 0 0) " stroke-linecap="round" />
	<path d="M 45 69.345 c -7.954 0 -15.337 -3.969 -19.751 -10.617 c -0.611 -0.92 -0.36 -2.162 0.56 -2.772 c 0.92 -0.613 2.162 -0.36 2.772 0.56 c 3.671 5.529 9.809 8.83 16.419 8.83 c 6.61 0 12.748 -3.301 16.419 -8.83 c 0.61 -0.921 1.85 -1.173 2.772 -0.56 c 0.92 0.61 1.171 1.853 0.56 2.772 C 60.337 65.376 52.953 69.345 45 69.345 z" style="stroke: none; stroke-width: 1; stroke-dasharray: none; stroke-linecap: butt; stroke-linejoin: miter; stroke-miterlimit: 10; fill: rgb(0,0,0); fill-rule: nonzero; opacity: 1;" transform=" matrix(1 0 0 1 0 0) " stroke-linecap="round" />
	<path d="M 18.789 34.942 c -1.408 -2.13 -1.174 -5.025 0.701 -6.901 v 0 c 2.143 -2.143 5.616 -2.143 7.759 0 l 1.188 1.188 c 0.311 0.311 0.815 0.311 1.126 0 l 1.188 -1.188 c 2.143 -2.143 5.616 -2.143 7.759 0 v 0 c 1.875 1.875 2.109 4.769 0.703 6.898 l -1.837 1.995 l -0.617 0.617 l -7.23 7.23 c -0.292 0.292 -0.765 0.292 -1.057 0 l -7.23 -7.23 l 0 0 l -0.618 -0.618 L 18.789 34.942 z" style="stroke: none; stroke-width: 1; stroke-dasharray: none; stroke-linecap: butt; stroke-linejoin: miter; stroke-miterlimit: 10; fill: rgb(239,41,41); fill-rule: nonzero; opacity: 1;" transform=" matrix(1 0 0 1 0 0) " stroke-linecap="round" />
	<path d="M 50.789 34.942 c -1.408 -2.13 -1.174 -5.025 0.701 -6.901 v 0 c 2.143 -2.143 5.616 -2.143 7.759 0 l 1.188 1.188 c 0.311 0.311 0.815 0.311 1.126 0 l 1.188 -1.188 c 2.143 -2.143 5.616 -2.143 7.759 0 v 0 c 1.875 1.875 2.109 4.769 0.703 6.898 l -1.837 1.995 l -0.617 0.617 l -7.23 7.23 c -0.292 0.292 -0.765 0.292 -1.057 0 l -7.23 -7.23 l 0 0 l -0.618 -0.618 L 50.789 34.942 z" style="stroke: none; stroke-width: 1; stroke-dasharray: none; stroke-linecap: butt; stroke-linejoin: miter; stroke-miterlimit: 10; fill: rgb(239,41,41); fill-rule: nonzero; opacity: 1;" transform=" matrix(1 0 0 1 0 0) " stroke-linecap="round" />
	<path d="M 29 46.998 c -0.703 0 -1.406 -0.268 -1.941 -0.802 l -7.849 -7.849 l -2.089 -2.302 c -1.951 -2.952 -1.549 -6.913 0.955 -9.418 c 2.92 -2.918 7.668 -2.918 10.587 0 L 29 26.964 l 0.336 -0.337 c 2.919 -2.918 7.668 -2.918 10.587 0 c 2.503 2.504 2.906 6.464 0.958 9.415 l -0.198 0.253 l -2.511 2.67 l -7.23 7.23 C 30.407 46.73 29.703 46.998 29 46.998 z M 20.381 33.718 l 2.274 2.418 L 29 42.481 l 6.961 -6.961 l 1.658 -1.803 c 0.819 -1.359 0.608 -3.129 -0.524 -4.262 c -1.358 -1.358 -3.571 -1.359 -4.93 0 l -1.187 1.188 c -1.091 1.089 -2.864 1.09 -3.955 0.001 l -1.189 -1.189 c -1.358 -1.358 -3.571 -1.36 -4.93 0 C 19.771 30.588 19.562 32.36 20.381 33.718 z" style="stroke: none; stroke-width: 1; stroke-dasharray: none; stroke-linecap: butt; stroke-linejoin: miter; stroke-miterlimit: 10; fill: rgb(0,0,0); fill-rule: nonzero; opacity: 1;" transform=" matrix(1 0 0 1 0 0) " stroke-linecap="round" />
	<path d="M 61 46.998 c -0.703 0 -1.406 -0.268 -1.941 -0.802 l -7.85 -7.85 l -2.088 -2.302 c -1.952 -2.951 -1.55 -6.912 0.954 -9.418 c 2.92 -2.918 7.67 -2.918 10.588 0 L 61 26.964 l 0.337 -0.337 c 2.918 -2.918 7.669 -2.918 10.587 0 c 2.503 2.504 2.905 6.463 0.958 9.415 l -0.198 0.254 l -2.51 2.669 l -7.231 7.231 C 62.406 46.73 61.703 46.998 61 46.998 z M 52.381 33.718 l 2.275 2.419 L 61 42.481 l 6.96 -6.96 l 1.66 -1.803 c 0.817 -1.359 0.607 -3.13 -0.525 -4.262 c -1.358 -1.359 -3.571 -1.359 -4.93 0 l -1.188 1.188 c -1.089 1.089 -2.863 1.09 -3.954 0.001 l -1.188 -1.189 c -1.361 -1.359 -3.573 -1.359 -4.931 0 C 51.771 30.589 51.562 32.36 52.381 33.718 z" style="stroke: none; stroke-width: 1; stroke-dasharray: none; stroke-linecap: butt; stroke-linejoin: miter; stroke-miterlimit: 10; fill: rgb(0,0,0); fill-rule: nonzero; opacity: 1;" transform=" matrix(1 0 0 1 0 0) " stroke-linecap="round" />
</g>
</svg>