<svg xmlns="http://www.w3.org/2000/svg" xmlns:xlink="http://www.w3.org/1999/xlink" version="1.1" width="256" height="256" viewBox="0 0 256 256" xml:space="preserve">

<defs>
</defs>
<g style="stroke: none; stroke-width: 0; stroke-dasharray: none; stroke-linecap: butt; stroke-linejoin: miter; stroke-miterlimit: 10; fill: none; fill-rule: nonzero; opacity: 1;" transform="translate(1.4065934065934016 1.4065934065934016) scale(2.81 2.81)" >
	<path d="M 44.542 8.678 C 44.537 4.437 41.422 1 37.579 1 c -2.945 0 -5.463 2.018 -6.481 4.871 l 0.042 0.009 c -5.509 0.27 -10.166 4.142 -12.08 9.542 c -5.656 1.831 -9.787 7.599 -9.787 14.435 c 0 3.249 0.936 6.255 2.522 8.714 c -3.322 2.744 -5.472 7.122 -5.472 12.055 c 0 4.488 1.782 8.515 4.605 11.271 c -0.59 1.684 -0.917 3.512 -0.917 5.425 c 0 8.309 6.101 15.045 13.627 15.045 c 1.104 0 2.176 -0.149 3.204 -0.422 l 0.189 -1.44 C 27.573 85.292 31.265 89 35.749 89 c 4.854 0 8.788 -4.342 8.793 -9.699" style="stroke: none; stroke-width: 1; stroke-dasharray: none; stroke-linecap: butt; stroke-linejoin: miter; stroke-miterlimit: 10; fill: rgb(255,168,190); fill-rule: nonzero; opacity: 1;" transform=" matrix(1 0 0 1 0 0) " stroke-linecap="round" />
	<path d="M 27.112 39.543 c -1.498 0 -2.994 -0.351 -4.403 -1.05 c -0.495 -0.246 -0.697 -0.846 -0.452 -1.34 c 0.246 -0.495 0.844 -0.697 1.34 -0.452 c 2.051 1.018 4.333 1.113 6.423 0.269 c 2.298 -0.929 4.068 -2.856 4.984 -5.428 c 0.186 -0.521 0.755 -0.793 1.277 -0.606 c 0.521 0.186 0.792 0.757 0.606 1.277 c -1.111 3.118 -3.284 5.465 -6.119 6.611 C 29.583 39.304 28.347 39.543 27.112 39.543 z" style="stroke: none; stroke-width: 1; stroke-dasharray: none; stroke-linecap: butt; stroke-linejoin: miter; stroke-miterlimit: 10; fill: rgb(0,0,0); fill-rule: nonzero; opacity: 1;" transform=" matrix(1 0 0 1 0 0) " stroke-linecap="round" />
	<path d="M 20.152 27.528 c -0.326 0 -0.646 -0.159 -0.838 -0.453 c -2.445 -3.736 -2.833 -7.665 -1.188 -12.008 c 0.196 -0.516 0.774 -0.776 1.29 -0.581 c 0.516 0.196 0.776 0.773 0.581 1.29 c -1.403 3.703 -1.079 7.041 0.991 10.205 c 0.302 0.462 0.173 1.082 -0.29 1.384 C 20.53 27.476 20.34 27.528 20.152 27.528 z" style="stroke: none; stroke-width: 1; stroke-dasharray: none; stroke-linecap: butt; stroke-linejoin: miter; stroke-miterlimit: 10; fill: rgb(0,0,0); fill-rule: nonzero; opacity: 1;" transform=" matrix(1 0 0 1 0 0) " stroke-linecap="round" />
	<path d="M 26.212 27.465 c -0.461 0 -0.875 -0.32 -0.977 -0.789 c -0.116 -0.54 0.227 -1.072 0.767 -1.188 c 5.825 -1.256 7.87 -5.047 6.437 -11.929 c -0.113 -0.541 0.234 -1.07 0.775 -1.183 c 0.539 -0.115 1.071 0.234 1.183 0.775 c 1.663 7.984 -1.02 12.793 -7.973 14.292 C 26.353 27.458 26.282 27.465 26.212 27.465 z" style="stroke: none; stroke-width: 1; stroke-dasharray: none; stroke-linecap: butt; stroke-linejoin: miter; stroke-miterlimit: 10; fill: rgb(0,0,0); fill-rule: nonzero; opacity: 1;" transform=" matrix(1 0 0 1 0 0) " stroke-linecap="round" />
	<path d="M 33.358 49.177 c -0.263 0 -0.527 -0.008 -0.792 -0.023 c -0.551 -0.032 -0.972 -0.505 -0.94 -1.056 c 0.032 -0.552 0.496 -0.963 1.057 -0.94 c 3.033 0.172 5.953 -0.839 8.014 -2.783 c 1.861 -1.756 2.845 -4.071 2.845 -6.695 c 0 -0.552 0.448 -1 1 -1 s 1 0.448 1 1 c 0 3.143 -1.233 6.037 -3.473 8.15 C 39.792 47.979 36.652 49.177 33.358 49.177 z" style="stroke: none; stroke-width: 1; stroke-dasharray: none; stroke-linecap: butt; stroke-linejoin: miter; stroke-miterlimit: 10; fill: rgb(0,0,0); fill-rule: nonzero; opacity: 1;" transform=" matrix(1 0 0 1 0 0) " stroke-linecap="round" />
	<path d="M 25.019 65.952 c -0.097 0 -0.195 -0.014 -0.292 -0.043 c -0.528 -0.161 -0.826 -0.72 -0.665 -1.248 c 1.913 -6.28 -0.03 -10.144 -6.115 -12.158 c -0.524 -0.174 -0.809 -0.739 -0.635 -1.264 c 0.173 -0.524 0.736 -0.808 1.264 -0.635 c 7.148 2.367 9.638 7.292 7.399 14.639 C 25.844 65.675 25.447 65.952 25.019 65.952 z" style="stroke: none; stroke-width: 1; stroke-dasharray: none; stroke-linecap: butt; stroke-linejoin: miter; stroke-miterlimit: 10; fill: rgb(0,0,0); fill-rule: nonzero; opacity: 1;" transform=" matrix(1 0 0 1 0 0) " stroke-linecap="round" />
	<path d="M 23.771 55.893 c -0.357 0 -0.703 -0.191 -0.883 -0.528 c -1.659 -3.104 -1.747 -6.255 -0.261 -9.368 c 0.237 -0.499 0.835 -0.709 1.333 -0.472 c 0.499 0.238 0.709 0.834 0.472 1.333 c -1.213 2.543 -1.141 5.017 0.22 7.563 c 0.26 0.487 0.077 1.094 -0.411 1.354 C 24.092 55.854 23.931 55.893 23.771 55.893 z" style="stroke: none; stroke-width: 1; stroke-dasharray: none; stroke-linecap: butt; stroke-linejoin: miter; stroke-miterlimit: 10; fill: rgb(0,0,0); fill-rule: nonzero; opacity: 1;" transform=" matrix(1 0 0 1 0 0) " stroke-linecap="round" />
	<path d="M 39.976 76.013 c -0.164 0 -0.33 -0.04 -0.483 -0.125 c -6.651 -3.681 -8.326 -8.996 -4.978 -15.8 c 0.244 -0.495 0.842 -0.698 1.339 -0.456 c 0.496 0.244 0.7 0.844 0.456 1.339 c -2.868 5.828 -1.549 10.013 4.152 13.167 c 0.483 0.268 0.658 0.876 0.391 1.359 C 40.669 75.826 40.328 76.013 39.976 76.013 z" style="stroke: none; stroke-width: 1; stroke-dasharray: none; stroke-linecap: butt; stroke-linejoin: miter; stroke-miterlimit: 10; fill: rgb(0,0,0); fill-rule: nonzero; opacity: 1;" transform=" matrix(1 0 0 1 0 0) " stroke-linecap="round" />
	<path d="M 33.986 80.061 c -0.198 0 -0.398 -0.059 -0.572 -0.181 c -0.453 -0.316 -0.563 -0.94 -0.246 -1.393 c 1.588 -2.27 1.901 -4.72 0.957 -7.49 c -0.178 -0.522 0.102 -1.091 0.624 -1.269 c 0.522 -0.181 1.091 0.102 1.27 0.624 c 1.148 3.369 0.741 6.492 -1.211 9.281 C 34.612 79.912 34.301 80.061 33.986 80.061 z" style="stroke: none; stroke-width: 1; stroke-dasharray: none; stroke-linecap: butt; stroke-linejoin: miter; stroke-miterlimit: 10; fill: rgb(0,0,0); fill-rule: nonzero; opacity: 1;" transform=" matrix(1 0 0 1 0 0) " stroke-linecap="round" />
	<path d="M 15.375 64.786 c -1.714 0 -3.419 -0.71 -5.092 -2.126 c -0.422 -0.357 -0.474 -0.988 -0.117 -1.41 c 0.356 -0.423 0.987 -0.472 1.409 -0.117 c 1.876 1.588 3.666 2.021 5.477 1.326 c 0.513 -0.195 1.094 0.059 1.292 0.574 c 0.199 0.516 -0.059 1.095 -0.574 1.293 C 16.971 64.633 16.172 64.786 15.375 64.786 z" style="stroke: none; stroke-width: 1; stroke-dasharray: none; stroke-linecap: butt; stroke-linejoin: miter; stroke-miterlimit: 10; fill: rgb(0,0,0); fill-rule: nonzero; opacity: 1;" transform=" matrix(1 0 0 1 0 0) " stroke-linecap="round" />
	<path d="M 11.797 39.571 c -0.307 0 -0.609 -0.141 -0.806 -0.406 c -0.328 -0.444 -0.233 -1.07 0.211 -1.398 c 1.244 -0.917 2.515 -1.57 3.778 -1.938 c 0.533 -0.153 1.086 0.15 1.24 0.68 c 0.155 0.53 -0.15 1.085 -0.68 1.24 c -1.037 0.303 -2.098 0.85 -3.151 1.628 C 12.211 39.507 12.003 39.571 11.797 39.571 z" style="stroke: none; stroke-width: 1; stroke-dasharray: none; stroke-linecap: butt; stroke-linejoin: miter; stroke-miterlimit: 10; fill: rgb(0,0,0); fill-rule: nonzero; opacity: 1;" transform=" matrix(1 0 0 1 0 0) " stroke-linecap="round" />
	<path d="M 36.838 54.997 c -0.425 0 -0.82 -0.273 -0.954 -0.701 c -1.015 -3.244 0.228 -6.967 2.828 -8.476 c 0.478 -0.277 1.089 -0.115 1.367 0.363 c 0.277 0.478 0.114 1.09 -0.363 1.367 c -1.795 1.041 -2.657 3.799 -1.922 6.147 c 0.165 0.527 -0.129 1.088 -0.656 1.253 C 37.038 54.982 36.937 54.997 36.838 54.997 z" style="stroke: none; stroke-width: 1; stroke-dasharray: none; stroke-linecap: butt; stroke-linejoin: miter; stroke-miterlimit: 10; fill: rgb(0,0,0); fill-rule: nonzero; opacity: 1;" transform=" matrix(1 0 0 1 0 0) " stroke-linecap="round" />
	<path d="M 33.537 21.206 c -0.173 0 -0.349 -0.045 -0.508 -0.14 c -0.476 -0.281 -0.633 -0.895 -0.351 -1.37 c 0.943 -1.594 2.519 -3.736 5.298 -3.941 c 0.563 -0.052 1.03 0.373 1.071 0.923 s -0.373 1.03 -0.923 1.071 c -1.424 0.105 -2.572 1.02 -3.725 2.966 C 34.212 21.03 33.879 21.206 33.537 21.206 z" style="stroke: none; stroke-width: 1; stroke-dasharray: none; stroke-linecap: butt; stroke-linejoin: miter; stroke-miterlimit: 10; fill: rgb(0,0,0); fill-rule: nonzero; opacity: 1;" transform=" matrix(1 0 0 1 0 0) " stroke-linecap="round" />
	<path d="M 44.542 80.291 c -0.552 0 -1 -0.447 -1 -1 L 43.541 8.688 c 0 -0.552 0.448 -1 1 -1 s 1 0.448 1 1 l 0.001 70.604 C 45.542 79.844 45.094 80.291 44.542 80.291 z" style="stroke: none; stroke-width: 1; stroke-dasharray: none; stroke-linecap: butt; stroke-linejoin: miter; stroke-miterlimit: 10; fill: rgb(0,0,0); fill-rule: nonzero; opacity: 1;" transform=" matrix(1 0 0 1 0 0) " stroke-linecap="round" />
	<path d="M 23.638 83.366 c -8.065 0 -14.626 -7.197 -14.626 -16.045 c 0 -1.764 0.261 -3.496 0.776 -5.159 c -2.845 -3.017 -4.465 -7.184 -4.465 -11.537 c 0 -4.781 1.878 -9.196 5.182 -12.253 c -1.462 -2.553 -2.231 -5.478 -2.231 -8.515 c 0 -6.883 4.094 -13.068 10.014 -15.227 c 2.298 -5.956 7.535 -9.777 13.465 -9.777 c 1.815 0 3.608 0.375 5.328 1.113 c 0.508 0.218 0.742 0.806 0.524 1.313 s -0.807 0.742 -1.313 0.524 c -1.469 -0.631 -2.996 -0.951 -4.539 -0.951 c -5.221 0 -9.833 3.494 -11.749 8.902 l -0.165 0.465 l -0.47 0.152 c -5.355 1.734 -9.096 7.279 -9.096 13.484 c 0 2.949 0.817 5.775 2.362 8.172 l 0.482 0.747 l -0.686 0.566 c -3.247 2.682 -5.109 6.794 -5.109 11.283 c 0 4.038 1.569 7.886 4.304 10.556 l 0.456 0.445 l -0.21 0.602 c -0.571 1.63 -0.861 3.344 -0.861 5.094 c 0 7.744 5.664 14.045 12.626 14.045 c 0.987 0 1.978 -0.131 2.946 -0.389 c 0.537 -0.14 1.082 0.176 1.224 0.71 c 0.142 0.533 -0.175 1.081 -0.709 1.224 C 25.963 83.213 24.798 83.366 23.638 83.366 z" style="stroke: none; stroke-width: 1; stroke-dasharray: none; stroke-linecap: butt; stroke-linejoin: miter; stroke-miterlimit: 10; fill: rgb(0,0,0); fill-rule: nonzero; opacity: 1;" transform=" matrix(1 0 0 1 0 0) " stroke-linecap="round" />
	<path d="M 44.542 9.688 c -0.552 0 -1 -0.448 -1 -1 C 43.542 5 40.867 2 37.579 2 c -2.453 0 -4.626 1.651 -5.539 4.207 c -0.186 0.52 -0.76 0.792 -1.278 0.605 c -0.521 -0.186 -0.792 -0.758 -0.606 -1.278 C 31.357 2.172 34.271 0 37.579 0 c 4.391 0 7.963 3.897 7.963 8.688 C 45.542 9.24 45.094 9.688 44.542 9.688 z" style="stroke: none; stroke-width: 1; stroke-dasharray: none; stroke-linecap: butt; stroke-linejoin: miter; stroke-miterlimit: 10; fill: rgb(0,0,0); fill-rule: nonzero; opacity: 1;" transform=" matrix(1 0 0 1 0 0) " stroke-linecap="round" />
	<path d="M 35.749 90 c -5.4 0 -9.793 -4.804 -9.793 -10.709 c 0 -0.553 0.448 -1 1 -1 s 1 0.447 1 1 c 0 4.802 3.496 8.709 7.793 8.709 s 7.793 -3.907 7.793 -8.709 c 0 -0.553 0.448 -1 1 -1 s 1 0.447 1 1 C 45.542 85.196 41.148 90 35.749 90 z" style="stroke: none; stroke-width: 1; stroke-dasharray: none; stroke-linecap: butt; stroke-linejoin: miter; stroke-miterlimit: 10; fill: rgb(0,0,0); fill-rule: nonzero; opacity: 1;" transform=" matrix(1 0 0 1 0 0) " stroke-linecap="round" />
	<path d="M 44.541 80.291 L 44.541 80.291 c -0.552 0 -1 -0.447 -1 -1 l 0.001 -70.604 c 0 -0.552 0.448 -1 1 -1 l 0 0 c 0.552 0 1 0.448 1 1 l -0.001 70.604 C 45.541 79.844 45.093 80.291 44.541 80.291 z" style="stroke: none; stroke-width: 1; stroke-dasharray: none; stroke-linecap: butt; stroke-linejoin: miter; stroke-miterlimit: 10; fill: rgb(0,0,0); fill-rule: nonzero; opacity: 1;" transform=" matrix(1 0 0 1 0 0) " stroke-linecap="round" />
	<circle cx="79.108" cy="44.998" r="4.568" style="stroke: none; stroke-width: 1; stroke-dasharray: none; stroke-linecap: butt; stroke-linejoin: miter; stroke-miterlimit: 10; fill: rgb(169,186,255); fill-rule: nonzero; opacity: 1;" transform="  matrix(1 0 0 1 0 0) "/>
	<circle cx="73.16799999999999" cy="25.387999999999998" r="4.568" style="stroke: none; stroke-width: 1; stroke-dasharray: none; stroke-linecap: butt; stroke-linejoin: miter; stroke-miterlimit: 10; fill: rgb(169,186,255); fill-rule: nonzero; opacity: 1;" transform="  matrix(1 0 0 1 0 0) "/>
	<circle cx="61.278" cy="5.568" r="4.568" style="stroke: none; stroke-width: 1; stroke-dasharray: none; stroke-linecap: butt; stroke-linejoin: miter; stroke-miterlimit: 10; fill: rgb(169,186,255); fill-rule: nonzero; opacity: 1;" transform="  matrix(1 0 0 1 0 0) "/>
	<circle cx="73.16799999999999" cy="64.618" r="4.568" style="stroke: none; stroke-width: 1; stroke-dasharray: none; stroke-linecap: butt; stroke-linejoin: miter; stroke-miterlimit: 10; fill: rgb(169,186,255); fill-rule: nonzero; opacity: 1;" transform="  matrix(1 0 0 1 0 0) "/>
	<circle cx="61.278" cy="84.428" r="4.568" style="stroke: none; stroke-width: 1; stroke-dasharray: none; stroke-linecap: butt; stroke-linejoin: miter; stroke-miterlimit: 10; fill: rgb(169,186,255); fill-rule: nonzero; opacity: 1;" transform="  matrix(1 0 0 1 0 0) "/>
	<path d="M 79.108 50.568 c -3.07 0 -5.568 -2.498 -5.568 -5.568 s 2.498 -5.568 5.568 -5.568 S 84.677 41.93 84.677 45 S 82.179 50.568 79.108 50.568 z M 79.108 41.432 c -1.968 0 -3.568 1.601 -3.568 3.568 s 1.601 3.568 3.568 3.568 s 3.568 -1.601 3.568 -3.568 S 81.076 41.432 79.108 41.432 z" style="stroke: none; stroke-width: 1; stroke-dasharray: none; stroke-linecap: butt; stroke-linejoin: miter; stroke-miterlimit: 10; fill: rgb(0,0,0); fill-rule: nonzero; opacity: 1;" transform=" matrix(1 0 0 1 0 0) " stroke-linecap="round" />
	<path d="M 74.54 46 H 67.8 c -0.553 0 -1 -0.448 -1 -1 s 0.447 -1 1 -1 h 6.74 c 0.553 0 1 0.448 1 1 S 75.093 46 74.54 46 z" style="stroke: none; stroke-width: 1; stroke-dasharray: none; stroke-linecap: butt; stroke-linejoin: miter; stroke-miterlimit: 10; fill: rgb(0,0,0); fill-rule: nonzero; opacity: 1;" transform=" matrix(1 0 0 1 0 0) " stroke-linecap="round" />
	<path d="M 62.203 46 h -3.308 c -0.553 0 -1 -0.448 -1 -1 s 0.447 -1 1 -1 h 3.308 c 0.553 0 1 0.448 1 1 S 62.756 46 62.203 46 z" style="stroke: none; stroke-width: 1; stroke-dasharray: none; stroke-linecap: butt; stroke-linejoin: miter; stroke-miterlimit: 10; fill: rgb(0,0,0); fill-rule: nonzero; opacity: 1;" transform=" matrix(1 0 0 1 0 0) " stroke-linecap="round" />
	<path d="M 53.606 46 h -3.256 c -0.553 0 -1 -0.448 -1 -1 s 0.447 -1 1 -1 h 3.256 c 0.553 0 1 0.448 1 1 S 54.159 46 53.606 46 z" style="stroke: none; stroke-width: 1; stroke-dasharray: none; stroke-linecap: butt; stroke-linejoin: miter; stroke-miterlimit: 10; fill: rgb(0,0,0); fill-rule: nonzero; opacity: 1;" transform=" matrix(1 0 0 1 0 0) " stroke-linecap="round" />
	<path d="M 73.163 30.952 c -3.07 0 -5.568 -2.498 -5.568 -5.568 s 2.498 -5.568 5.568 -5.568 s 5.568 2.498 5.568 5.568 S 76.233 30.952 73.163 30.952 z M 73.163 21.815 c -1.968 0 -3.568 1.601 -3.568 3.568 s 1.601 3.568 3.568 3.568 s 3.568 -1.601 3.568 -3.568 S 75.131 21.815 73.163 21.815 z" style="stroke: none; stroke-width: 1; stroke-dasharray: none; stroke-linecap: butt; stroke-linejoin: miter; stroke-miterlimit: 10; fill: rgb(0,0,0); fill-rule: nonzero; opacity: 1;" transform=" matrix(1 0 0 1 0 0) " stroke-linecap="round" />
	<path d="M 61.274 11.137 c -3.07 0 -5.568 -2.498 -5.568 -5.568 S 58.204 0 61.274 0 s 5.568 2.498 5.568 5.568 S 64.345 11.137 61.274 11.137 z M 61.274 2 c -1.968 0 -3.568 1.601 -3.568 3.568 s 1.601 3.568 3.568 3.568 s 3.568 -1.601 3.568 -3.568 S 63.242 2 61.274 2 z" style="stroke: none; stroke-width: 1; stroke-dasharray: none; stroke-linecap: butt; stroke-linejoin: miter; stroke-miterlimit: 10; fill: rgb(0,0,0); fill-rule: nonzero; opacity: 1;" transform=" matrix(1 0 0 1 0 0) " stroke-linecap="round" />
	<path d="M 53.606 33.526 h -3.256 c -0.553 0 -1 -0.448 -1 -1 s 0.447 -1 1 -1 h 3.256 c 0.553 0 1 0.448 1 1 S 54.159 33.526 53.606 33.526 z" style="stroke: none; stroke-width: 1; stroke-dasharray: none; stroke-linecap: butt; stroke-linejoin: miter; stroke-miterlimit: 10; fill: rgb(0,0,0); fill-rule: nonzero; opacity: 1;" transform=" matrix(1 0 0 1 0 0) " stroke-linecap="round" />
	<path d="M 63.535 33.526 h -4.64 c -0.553 0 -1 -0.448 -1 -1 s 0.447 -1 1 -1 h 4.081 l 6.359 -3.854 c 0.473 -0.286 1.088 -0.136 1.374 0.337 c 0.286 0.472 0.135 1.087 -0.337 1.374 L 63.535 33.526 z" style="stroke: none; stroke-width: 1; stroke-dasharray: none; stroke-linecap: butt; stroke-linejoin: miter; stroke-miterlimit: 10; fill: rgb(0,0,0); fill-rule: nonzero; opacity: 1;" transform=" matrix(1 0 0 1 0 0) " stroke-linecap="round" />
	<path d="M 56.981 20.439 h -6.631 c -0.553 0 -1 -0.448 -1 -1 s 0.447 -1 1 -1 h 5.309 l 3.704 -8.695 c 0.217 -0.507 0.804 -0.746 1.312 -0.528 c 0.509 0.216 0.745 0.804 0.528 1.312 L 56.981 20.439 z" style="stroke: none; stroke-width: 1; stroke-dasharray: none; stroke-linecap: butt; stroke-linejoin: miter; stroke-miterlimit: 10; fill: rgb(0,0,0); fill-rule: nonzero; opacity: 1;" transform=" matrix(1 0 0 1 0 0) " stroke-linecap="round" />
	<path d="M 73.163 70.185 c -3.07 0 -5.568 -2.498 -5.568 -5.568 s 2.498 -5.568 5.568 -5.568 s 5.568 2.498 5.568 5.568 S 76.233 70.185 73.163 70.185 z M 73.163 61.048 c -1.968 0 -3.568 1.601 -3.568 3.568 s 1.601 3.568 3.568 3.568 s 3.568 -1.601 3.568 -3.568 S 75.131 61.048 73.163 61.048 z" style="stroke: none; stroke-width: 1; stroke-dasharray: none; stroke-linecap: butt; stroke-linejoin: miter; stroke-miterlimit: 10; fill: rgb(0,0,0); fill-rule: nonzero; opacity: 1;" transform=" matrix(1 0 0 1 0 0) " stroke-linecap="round" />
	<path d="M 61.274 90 c -3.07 0 -5.568 -2.498 -5.568 -5.568 s 2.498 -5.568 5.568 -5.568 s 5.568 2.498 5.568 5.568 S 64.345 90 61.274 90 z M 61.274 80.863 c -1.968 0 -3.568 1.601 -3.568 3.568 S 59.307 88 61.274 88 s 3.568 -1.601 3.568 -3.568 S 63.242 80.863 61.274 80.863 z" style="stroke: none; stroke-width: 1; stroke-dasharray: none; stroke-linecap: butt; stroke-linejoin: miter; stroke-miterlimit: 10; fill: rgb(0,0,0); fill-rule: nonzero; opacity: 1;" transform=" matrix(1 0 0 1 0 0) " stroke-linecap="round" />
	<path d="M 53.606 58.475 h -3.256 c -0.553 0 -1 -0.447 -1 -1 s 0.447 -1 1 -1 h 3.256 c 0.553 0 1 0.447 1 1 S 54.159 58.475 53.606 58.475 z" style="stroke: none; stroke-width: 1; stroke-dasharray: none; stroke-linecap: butt; stroke-linejoin: miter; stroke-miterlimit: 10; fill: rgb(0,0,0); fill-rule: nonzero; opacity: 1;" transform=" matrix(1 0 0 1 0 0) " stroke-linecap="round" />
	<path d="M 69.854 62.472 c -0.177 0 -0.355 -0.047 -0.518 -0.145 l -6.359 -3.853 h -4.081 c -0.553 0 -1 -0.447 -1 -1 s 0.447 -1 1 -1 h 4.64 l 6.838 4.142 c 0.472 0.286 0.623 0.901 0.337 1.374 C 70.521 62.3 70.191 62.472 69.854 62.472 z" style="stroke: none; stroke-width: 1; stroke-dasharray: none; stroke-linecap: butt; stroke-linejoin: miter; stroke-miterlimit: 10; fill: rgb(0,0,0); fill-rule: nonzero; opacity: 1;" transform=" matrix(1 0 0 1 0 0) " stroke-linecap="round" />
	<path d="M 60.283 80.863 c -0.389 0 -0.758 -0.228 -0.92 -0.608 l -3.704 -8.694 h -5.309 c -0.553 0 -1 -0.447 -1 -1 s 0.447 -1 1 -1 h 6.631 l 4.222 9.911 c 0.217 0.508 -0.02 1.095 -0.528 1.312 C 60.547 80.838 60.414 80.863 60.283 80.863 z" style="stroke: none; stroke-width: 1; stroke-dasharray: none; stroke-linecap: butt; stroke-linejoin: miter; stroke-miterlimit: 10; fill: rgb(0,0,0); fill-rule: nonzero; opacity: 1;" transform=" matrix(1 0 0 1 0 0) " stroke-linecap="round" />
</g>
</svg>