<svg xmlns="http://www.w3.org/2000/svg" xmlns:xlink="http://www.w3.org/1999/xlink" version="1.1" width="256" height="256" viewBox="0 0 256 256" xml:space="preserve">

<defs>
</defs>
<g style="stroke: none; stroke-width: 0; stroke-dasharray: none; stroke-linecap: butt; stroke-linejoin: miter; stroke-miterlimit: 10; fill: none; fill-rule: nonzero; opacity: 1;" transform="translate(1.4065934065934016 1.4065934065934016) scale(2.81 2.81)" >
	<path d="M 31.245 67.867 c -2.743 6.911 -7.543 11.492 -13.006 11.492 c -8.524 0 -15.434 -11.151 -15.434 -24.907 s 6.91 -24.907 15.434 -24.907 c 5.327 0 10.024 4.356 12.798 10.981" style="stroke: none; stroke-width: 1; stroke-dasharray: none; stroke-linecap: butt; stroke-linejoin: miter; stroke-miterlimit: 10; fill: rgb(253,208,189); fill-rule: nonzero; opacity: 1;" transform=" matrix(1 0 0 1 0 0) " stroke-linecap="round" />
	<path d="M 54.801 59.143 c -2.743 6.911 -7.543 8.875 -13.006 8.875 c -8.524 0 -15.434 -8.534 -15.434 -22.29 s 6.91 -24.907 15.434 -24.907 c 5.327 0 10.024 4.356 12.798 10.981" style="stroke: none; stroke-width: 1; stroke-dasharray: none; stroke-linecap: butt; stroke-linejoin: miter; stroke-miterlimit: 10; fill: rgb(253,208,189); fill-rule: nonzero; opacity: 1;" transform=" matrix(1 0 0 1 0 0) " stroke-linecap="round" />
	<path d="M 16.525 67.866 l 35.506 0 c 7.408 0 13.413 -6.005 13.413 -13.413 v 0 c 0 -7.408 -6.005 -13.413 -13.413 -13.413 l -35.506 0 C 12.113 49.981 12.113 58.924 16.525 67.866 z" style="stroke: none; stroke-width: 1; stroke-dasharray: none; stroke-linecap: butt; stroke-linejoin: miter; stroke-miterlimit: 10; fill: rgb(254,254,254); fill-rule: nonzero; opacity: 1;" transform=" matrix(1 0 0 1 0 0) " stroke-linecap="round" />
	<path d="M 40.081 59.141 h 35.506 C 82.995 59.141 89 53.136 89 45.728 v 0 c 0 -7.408 -6.005 -13.413 -13.413 -13.413 H 40.081 C 35.669 41.257 35.669 50.199 40.081 59.141 z" style="stroke: none; stroke-width: 1; stroke-dasharray: none; stroke-linecap: butt; stroke-linejoin: miter; stroke-miterlimit: 10; fill: rgb(254,254,254); fill-rule: nonzero; opacity: 1;" transform=" matrix(1 0 0 1 0 0) " stroke-linecap="round" />
	<path d="M 18.239 80.359 c -9.062 0 -16.434 -11.622 -16.434 -25.907 s 7.372 -25.907 16.434 -25.907 c 5.552 0 10.681 4.334 13.72 11.595 c 0.213 0.509 -0.027 1.095 -0.536 1.309 c -0.509 0.213 -1.096 -0.026 -1.309 -0.536 c -2.718 -6.492 -7.157 -10.368 -11.875 -10.368 c -7.959 0 -14.434 10.725 -14.434 23.907 s 6.475 23.907 14.434 23.907 c 4.863 0 9.377 -4.061 12.077 -10.861 c 0.204 -0.513 0.784 -0.766 1.299 -0.561 c 0.513 0.204 0.764 0.785 0.561 1.299 C 29.162 75.827 23.952 80.359 18.239 80.359 z" style="stroke: none; stroke-width: 1; stroke-dasharray: none; stroke-linecap: butt; stroke-linejoin: miter; stroke-miterlimit: 10; fill: rgb(0,0,0); fill-rule: nonzero; opacity: 1;" transform=" matrix(1 0 0 1 0 0) " stroke-linecap="round" />
	<ellipse cx="80.154" cy="45.798" rx="7.834" ry="10.878" style="stroke: none; stroke-width: 1; stroke-dasharray: none; stroke-linecap: butt; stroke-linejoin: miter; stroke-miterlimit: 10; fill: rgb(79,156,232); fill-rule: nonzero; opacity: 1;" transform=" matrix(1 0 0 1 0 0) "/>
	<ellipse cx="82.12599999999999" cy="45.028" rx="2.856" ry="4.518" style="stroke: none; stroke-width: 1; stroke-dasharray: none; stroke-linecap: butt; stroke-linejoin: miter; stroke-miterlimit: 10; fill: rgb(0,0,0); fill-rule: nonzero; opacity: 1;" transform=" matrix(1 0 0 1 0 0) "/>
	<ellipse cx="57.614000000000004" cy="54.448" rx="7.834" ry="10.878" style="stroke: none; stroke-width: 1; stroke-dasharray: none; stroke-linecap: butt; stroke-linejoin: miter; stroke-miterlimit: 10; fill: rgb(79,156,232); fill-rule: nonzero; opacity: 1;" transform=" matrix(1 0 0 1 0 0) "/>
	<ellipse cx="59.576" cy="53.678" rx="2.856" ry="4.518" style="stroke: none; stroke-width: 1; stroke-dasharray: none; stroke-linecap: butt; stroke-linejoin: miter; stroke-miterlimit: 10; fill: rgb(0,0,0); fill-rule: nonzero; opacity: 1;" transform=" matrix(1 0 0 1 0 0) "/>
	<path d="M 0 30.706 c 1.307 -3.194 3.084 -6.285 5.588 -8.904 c 2.48 -2.611 5.803 -4.707 9.625 -5.524 l 0.057 -0.012 c 1.087 -0.232 2.156 0.461 2.388 1.548 c 0.232 1.087 -0.461 2.156 -1.548 2.388 c -0.128 0.027 -0.267 0.042 -0.393 0.044 c -3.034 0.041 -6.13 1.158 -8.821 3.068 C 4.193 25.216 1.892 27.819 0 30.706 z" style="stroke: none; stroke-width: 1; stroke-dasharray: none; stroke-linecap: butt; stroke-linejoin: miter; stroke-miterlimit: 10; fill: rgb(0,0,0); fill-rule: nonzero; opacity: 1;" transform=" matrix(1 0 0 1 0 0) " stroke-linecap="round" />
	<path d="M 64.541 60.291 c -0.546 0 -0.992 -0.438 -1 -0.986 c -0.008 -0.553 0.435 -1.006 0.986 -1.014 l 11.046 -0.15 C 82.432 58.141 88 52.572 88 45.728 c 0 -6.845 -5.568 -12.414 -12.413 -12.414 H 40.081 c -0.552 0 -1 -0.448 -1 -1 c 0 -0.552 0.448 -1 1 -1 h 35.506 C 83.534 31.315 90 37.78 90 45.728 s -6.466 14.413 -14.413 14.413 l -11.032 0.15 C 64.55 60.291 64.545 60.291 64.541 60.291 z" style="stroke: none; stroke-width: 1; stroke-dasharray: none; stroke-linecap: butt; stroke-linejoin: miter; stroke-miterlimit: 10; fill: rgb(0,0,0); fill-rule: nonzero; opacity: 1;" transform=" matrix(1 0 0 1 0 0) " stroke-linecap="round" />
	<path d="M 27.866 35.988 c -0.094 0 -0.19 -0.014 -0.285 -0.042 c -0.53 -0.157 -0.832 -0.713 -0.674 -1.243 c 2.723 -9.18 8.427 -14.882 14.888 -14.882 c 5.552 0 10.681 4.334 13.721 11.595 c 0.213 0.509 -0.027 1.095 -0.537 1.309 c -0.506 0.214 -1.094 -0.026 -1.309 -0.536 c -2.717 -6.492 -7.156 -10.367 -11.875 -10.367 c -5.456 0 -10.547 5.28 -12.971 13.451 C 28.695 35.706 28.297 35.988 27.866 35.988 z" style="stroke: none; stroke-width: 1; stroke-dasharray: none; stroke-linecap: butt; stroke-linejoin: miter; stroke-miterlimit: 10; fill: rgb(0,0,0); fill-rule: nonzero; opacity: 1;" transform=" matrix(1 0 0 1 0 0) " stroke-linecap="round" />
	<path d="M 51.449 14.582 c -2.798 -1.283 -5.766 -2.155 -8.693 -2.305 c -2.921 -0.162 -5.754 0.467 -8.02 1.859 c -0.949 0.583 -2.19 0.286 -2.773 -0.662 s -0.286 -2.19 0.662 -2.773 c 0.127 -0.078 0.259 -0.14 0.393 -0.187 l 0.078 -0.026 c 3.343 -1.142 6.88 -1.053 9.987 -0.183 C 46.216 11.17 48.991 12.731 51.449 14.582 z" style="stroke: none; stroke-width: 1; stroke-dasharray: none; stroke-linecap: butt; stroke-linejoin: miter; stroke-miterlimit: 10; fill: rgb(0,0,0); fill-rule: nonzero; opacity: 1;" transform=" matrix(1 0 0 1 0 0) " stroke-linecap="round" />
	<path d="M 52.03 68.865 H 16.525 c -0.552 0 -1 -0.447 -1 -1 s 0.448 -1 1 -1 H 52.03 c 6.845 0 12.413 -5.568 12.413 -12.413 S 58.875 42.039 52.03 42.039 H 16.525 c -0.552 0 -1 -0.448 -1 -1 s 0.448 -1 1 -1 H 52.03 c 7.947 0 14.413 6.466 14.413 14.413 S 59.978 68.865 52.03 68.865 z" style="stroke: none; stroke-width: 1; stroke-dasharray: none; stroke-linecap: butt; stroke-linejoin: miter; stroke-miterlimit: 10; fill: rgb(0,0,0); fill-rule: nonzero; opacity: 1;" transform=" matrix(1 0 0 1 0 0) " stroke-linecap="round" />
</g>
</svg>