<svg xmlns="http://www.w3.org/2000/svg" xmlns:xlink="http://www.w3.org/1999/xlink" version="1.1" width="16px" height="16px" viewBox="0 0 256 256" xml:space="preserve" fill="currentColor"><defs></defs><g style="stroke: none; stroke-width: 0; stroke-dasharray: none; stroke-linecap: butt; stroke-linejoin: miter; stroke-miterlimit: 10; fill: none; fill-rule: nonzero; opacity: 1;" transform="translate(1.4065934065934016 1.4065934065934016) scale(2.81 2.81)"><ellipse cx="25.568" cy="51.744" rx="24.068" ry="31.644" style="stroke: none; stroke-width: 1; stroke-dasharray: none; stroke-linecap: butt; stroke-linejoin: miter; stroke-miterlimit: 10; fill: rgb(254,254,254); fill-rule: nonzero; opacity: 1;" transform=" matrix(1 0 0 1 0 0) "></ellipse><ellipse cx="69.072" cy="51.74" rx="19.432" ry="25.55" style="stroke: none; stroke-width: 1; stroke-dasharray: none; stroke-linecap: butt; stroke-linejoin: miter; stroke-miterlimit: 10; fill: rgb(254,254,254); fill-rule: nonzero; opacity: 1;" transform=" matrix(1 0 0 1 0 0) "></ellipse><path d="M 25.567 84.888 C 11.469 84.888 0 70.02 0 51.743 c 0 -18.276 11.469 -33.145 25.567 -33.145 s 25.567 14.869 25.567 33.145 C 51.135 70.02 39.666 84.888 25.567 84.888 z M 25.567 21.599 C 13.124 21.599 3 35.122 3 51.743 c 0 16.622 10.124 30.145 22.567 30.145 s 22.567 -13.522 22.567 -30.145 C 48.135 35.122 38.011 21.599 25.567 21.599 z" style="stroke: none; stroke-width: 1; stroke-dasharray: none; stroke-linecap: butt; stroke-linejoin: miter; stroke-miterlimit: 10; fill: rgb(0,0,0); fill-rule: nonzero; opacity: 1;" transform=" matrix(1 0 0 1 0 0) " stroke-linecap="round"></path><path d="M 69.067 78.793 c -11.542 0 -20.933 -12.135 -20.933 -27.05 c 0 -14.916 9.391 -27.05 20.933 -27.05 S 90 36.828 90 51.743 C 90 66.658 80.609 78.793 69.067 78.793 z M 69.067 27.693 c -9.888 0 -17.933 10.789 -17.933 24.05 c 0 13.261 8.045 24.05 17.933 24.05 S 87 65.004 87 51.743 C 87 38.482 78.955 27.693 69.067 27.693 z" style="stroke: none; stroke-width: 1; stroke-dasharray: none; stroke-linecap: butt; stroke-linejoin: miter; stroke-miterlimit: 10; fill: rgb(0,0,0); fill-rule: nonzero; opacity: 1;" transform=" matrix(1 0 0 1 0 0) " stroke-linecap="round"></path><path d="M 35.829 12.762 c -1.739 -1.548 -4.052 -2.771 -6.569 -3.498 c -2.514 -0.748 -5.231 -1.078 -7.914 -0.895 c -2.68 0.134 -5.293 1.039 -7.809 2.338 c -2.48 1.304 -4.899 2.908 -6.667 5.197 c 1.367 -2.565 3.559 -4.643 5.897 -6.421 c 1.183 -0.888 2.434 -1.695 3.784 -2.387 c 1.349 -0.705 2.827 -1.24 4.316 -1.613 c 2.991 -0.75 6.112 -0.942 9.24 -0.601 c 3.125 0.334 6.295 1.246 9.251 3.027 l 0.031 0.019 c 1.426 0.859 1.885 2.712 1.026 4.138 c -0.859 1.426 -2.712 1.885 -4.138 1.026 C 36.12 12.997 35.962 12.879 35.829 12.762 z" style="stroke: none; stroke-width: 1; stroke-dasharray: none; stroke-linecap: butt; stroke-linejoin: miter; stroke-miterlimit: 10; fill: rgb(0,0,0); fill-rule: nonzero; opacity: 1;" transform=" matrix(1 0 0 1 0 0) " stroke-linecap="round"></path><path d="M 52.101 15.742 c 2.956 -1.781 6.126 -2.693 9.251 -3.027 c 3.128 -0.341 6.248 -0.149 9.24 0.601 c 1.488 0.373 2.966 0.908 4.316 1.613 c 1.349 0.692 2.601 1.499 3.784 2.387 c 2.338 1.778 4.53 3.856 5.897 6.421 c -1.768 -2.288 -4.186 -3.893 -6.667 -5.197 c -2.516 -1.299 -5.129 -2.204 -7.809 -2.338 c -2.683 -0.183 -5.399 0.147 -7.914 0.895 c -2.517 0.727 -4.829 1.95 -6.569 3.498 c -1.244 1.107 -3.149 0.996 -4.256 -0.248 s -0.996 -3.149 0.248 -4.256 c 0.137 -0.122 0.282 -0.229 0.434 -0.322 L 52.101 15.742 z" style="stroke: none; stroke-width: 1; stroke-dasharray: none; stroke-linecap: butt; stroke-linejoin: miter; stroke-miterlimit: 10; fill: rgb(0,0,0); fill-rule: nonzero; opacity: 1;" transform=" matrix(1 0 0 1 0 0) " stroke-linecap="round"></path><ellipse cx="25.198" cy="51.152" rx="10.278" ry="14.132" style="stroke: none; stroke-width: 1; stroke-dasharray: none; stroke-linecap: butt; stroke-linejoin: miter; stroke-miterlimit: 10; fill: rgb(0,0,0); fill-rule: nonzero; opacity: 1;" transform=" matrix(1 0 0 1 0 0) "></ellipse><ellipse cx="25.200000000000003" cy="42.85" rx="4.24" ry="5.83" style="stroke: none; stroke-width: 1; stroke-dasharray: none; stroke-linecap: butt; stroke-linejoin: miter; stroke-miterlimit: 10; fill: rgb(255,255,255); fill-rule: nonzero; opacity: 1;" transform=" matrix(1 0 0 1 0 0) "></ellipse><ellipse cx="68.83800000000001" cy="51.149" rx="8.138" ry="11.189" style="stroke: none; stroke-width: 1; stroke-dasharray: none; stroke-linecap: butt; stroke-linejoin: miter; stroke-miterlimit: 10; fill: rgb(0,0,0); fill-rule: nonzero; opacity: 1;" transform=" matrix(1 0 0 1 0 0) "></ellipse><ellipse cx="68.837" cy="44.576" rx="3.357" ry="4.616" style="stroke: none; stroke-width: 1; stroke-dasharray: none; stroke-linecap: butt; stroke-linejoin: miter; stroke-miterlimit: 10; fill: rgb(255,255,255); fill-rule: nonzero; opacity: 1;" transform=" matrix(1 0 0 1 0 0) "></ellipse></g></svg>